<svg width="847" height="747" viewBox="0 0 847 747" fill="none" xmlns="http://www.w3.org/2000/svg">
<g clip-path="url(#clip0_13_65)">
<path d="M93.5972 653.04C83.6733 658.746 75.9625 657.994 65.1486 657.78C63.5472 657.703 53.8046 656.983 53.2501 656.743C51.8355 657.036 49.2409 660.9 47.9106 662.525C44.5952 666.568 33.4738 680.556 30.3102 681.184C29.9544 680.954 29.5213 680.764 29.2569 680.266C28.7889 679.369 29.0041 679.283 29.4525 678.812C29.5086 678.646 38.5822 669.114 39.4644 668.106C43.3329 663.634 47.3235 659.609 50.8129 654.754L49.0152 649.682L46.8578 643.475C45.7144 639.398 44.0549 635.487 43.1122 631.406C40.1554 618.675 41.9079 613.921 46.8623 601.77C47.5391 600.545 48.3512 598.995 49.137 597.908C54.1905 591.252 58.0894 586.35 64.4242 580.688C65.8931 579.372 67.1764 578.251 68.7541 576.948C69.2987 576.493 70.0024 576.096 70.6662 575.644C79.7737 569.394 89.8973 565.303 100.319 561.705C103.344 560.663 106.427 559.755 109.431 558.713L113.971 557.429C117.815 556.462 121.677 555.963 125.368 554.516C127.974 553.496 129.29 551.638 131.418 550.918C131.717 553.037 130.089 555.251 129.82 557.505C129.541 559.853 129.774 561.673 129.959 564.18C130.847 575.957 129.548 591.901 127.773 603.182C126.384 612.037 123.983 619.347 120.098 626.037C118.042 629.574 115.695 632.95 113.325 636.006C107.643 643.327 101.744 648.354 93.5972 653.04Z" stroke="url(#paint0_linear_13_65)" stroke-miterlimit="22.9256"/>
<path d="M131.073 551.676C124.043 561.711 116.956 571.701 109.79 581.641C115.828 582.374 121.265 582.478 127.35 579.293C119.436 584.319 115.249 582.121 109.1 582.598C103.876 589.828 98.6104 597.037 93.2884 604.202C102.849 607.042 111.591 608.726 122.269 605.23C108.28 611.14 102.167 606.524 92.2273 605.633C87.3451 612.197 83.0546 617.823 78.0741 624.322C85.6498 623.402 99.5108 630.44 117.276 627.082C97.9923 632.024 90.4378 626.997 77.1986 625.537C72.3181 631.898 67.3915 638.226 62.4021 644.512C74.6298 648.133 85.8177 650.274 99.4796 645.799C81.545 653.374 73.6899 647.471 60.9655 646.32C51.6163 658.066 42.062 669.679 32.2607 681.117C30.7103 682.481 28.5167 681.053 29.9351 678.546C40.6091 666.572 50.959 654.525 61.016 642.415C56.83 630.634 49.4756 624.311 52.5055 605.337C51.4392 619.542 56.0758 629.839 62.4006 640.743C66.2562 636.087 70.0741 631.422 73.8523 626.743C71.0861 614.185 65.6532 607.023 68.6677 587.733C67.3305 602.336 70.5452 613.403 75.0324 625.272C80.9499 617.928 86.7648 610.57 92.5024 603.189C89.2804 593.618 83.2544 588.804 85.663 573.696C84.8185 584.944 88.558 593.043 93.6115 601.693L93.4031 602.028C99.199 594.551 104.911 587.052 110.55 579.543C107.936 573.991 103.982 571.408 104.442 562.069C104.68 569.017 107.516 573.734 111.19 578.687C117.924 569.701 124.547 560.697 131.073 551.676Z" fill="url(#paint1_linear_13_65)"/>
</g>
<g clip-path="url(#clip1_13_65)">
<path d="M566.036 700.054C557.711 707.912 550.037 708.974 539.47 711.28C537.894 711.577 528.251 713.143 527.656 713.038C526.349 713.652 524.724 718.013 523.808 719.904C521.524 724.607 513.96 740.797 511.029 742.144C510.63 742.003 510.164 741.919 509.791 741.496C509.127 740.733 509.317 740.599 509.643 740.036C509.659 739.862 516.267 728.481 516.891 727.296C519.613 722.047 522.559 717.204 524.823 711.671L521.896 707.156L518.354 701.62C516.294 697.921 513.77 694.504 511.904 690.753C506.068 679.059 506.667 674.028 508.66 661.058C509.033 659.709 509.463 658.013 509.974 656.773C513.341 649.124 515.993 643.45 520.838 636.47C521.96 634.849 522.948 633.46 524.179 631.825C524.603 631.256 525.195 630.707 525.735 630.112C533.14 621.916 542.035 615.583 551.334 609.66C554.033 607.943 556.821 606.343 559.5 604.631L563.617 602.327C567.131 600.492 570.771 599.108 574.024 596.843C576.322 595.245 577.169 593.132 579.072 591.936C579.856 593.928 578.787 596.46 579.049 598.715C579.324 601.063 579.974 602.779 580.737 605.174C584.339 616.422 586.783 632.231 587.681 643.615C588.389 652.551 587.753 660.219 585.531 667.629C584.354 671.547 582.857 675.376 581.262 678.9C577.439 687.341 572.87 693.602 566.036 700.054Z" stroke="url(#paint2_linear_13_65)" stroke-miterlimit="22.9256"/>
<path d="M578.913 592.755C574.408 604.148 569.839 615.513 565.181 626.847C571.224 626.156 576.537 624.992 581.714 620.48C575.186 627.209 570.602 626.045 564.732 627.938C561.333 636.185 557.889 644.421 554.379 652.627C564.338 653.166 573.231 652.77 582.804 646.887C570.573 655.889 563.554 652.821 553.679 654.265C550.458 661.785 547.593 668.254 544.26 675.734C551.414 673.077 566.532 676.699 583.03 669.301C565.424 678.592 556.907 675.46 543.691 677.119C540.424 684.441 537.104 691.74 533.713 699.014C546.448 699.692 557.827 699.173 570.073 691.644C554.392 703.182 545.379 699.267 532.736 701.107C526.375 714.705 519.783 728.222 512.911 741.625C511.72 743.312 509.254 742.433 510.051 739.666C517.648 725.537 524.912 711.414 531.877 697.297C525.066 686.812 516.443 682.373 514.978 663.215C517.244 677.278 524.148 686.215 532.835 695.349C535.502 689.924 538.131 684.499 540.717 679.069C535.107 667.499 528.157 661.797 526.603 642.335C528.698 656.849 534.399 666.865 541.523 677.365C545.57 668.846 549.515 660.337 553.379 651.824C548.019 643.265 541.039 639.985 539.868 624.73C541.662 635.866 547.183 642.874 554.109 650.112L553.985 650.486C557.883 641.866 561.695 633.244 565.433 624.63C561.6 619.838 557.153 618.245 555.428 609.055C557.276 615.758 561.131 619.686 565.856 623.648C570.316 613.343 574.663 603.046 578.913 592.755Z" fill="url(#paint3_linear_13_65)"/>
</g>
<g clip-path="url(#clip2_13_65)">
<path d="M737.227 662.04C747.15 667.746 754.861 666.994 765.675 666.78C767.277 666.703 777.019 665.983 777.574 665.743C778.988 666.036 781.583 669.9 782.913 671.525C786.229 675.568 797.35 689.556 800.513 690.184C800.869 689.954 801.302 689.764 801.567 689.266C802.035 688.369 801.82 688.283 801.371 687.812C801.315 687.646 792.241 678.114 791.359 677.106C787.491 672.634 783.5 668.609 780.011 663.754L781.809 658.682L783.966 652.475C785.109 648.398 786.769 644.487 787.712 640.406C790.668 627.675 788.916 622.921 783.961 610.77C783.285 609.545 782.473 607.995 781.687 606.908C776.633 600.252 772.734 595.35 766.4 589.688C764.931 588.372 763.647 587.251 762.07 585.948C761.525 585.493 760.821 585.096 760.158 584.644C751.05 578.394 740.926 574.303 730.505 570.705C727.48 569.663 724.397 568.755 721.393 567.713L716.853 566.429C713.009 565.462 709.147 564.963 705.456 563.516C702.849 562.496 701.534 560.638 699.406 559.918C699.106 562.037 700.734 564.251 701.004 566.505C701.283 568.853 701.05 570.673 700.865 573.18C699.977 584.957 701.276 600.901 703.051 612.182C704.439 621.037 706.841 628.347 710.726 635.037C712.782 638.574 715.129 641.95 717.499 645.006C723.18 652.327 729.08 657.354 737.227 662.04Z" stroke="url(#paint4_linear_13_65)" stroke-miterlimit="22.9256"/>
<path d="M699.751 560.676C706.781 570.711 713.868 580.701 721.034 590.641C714.996 591.374 709.558 591.478 703.474 588.293C711.388 593.319 715.575 591.121 721.724 591.598C726.948 598.828 732.213 606.037 737.535 613.202C727.974 616.042 719.233 617.726 708.554 614.23C722.544 620.14 728.657 615.524 738.596 614.633C743.479 621.197 747.769 626.823 752.75 633.322C745.174 632.402 731.313 639.44 713.547 636.082C732.831 641.024 740.386 635.997 753.625 634.537C758.506 640.898 763.432 647.226 768.422 653.512C756.194 657.133 745.006 659.274 731.344 654.799C749.279 662.374 757.134 656.471 769.858 655.32C779.207 667.066 788.762 678.679 798.563 690.117C800.113 691.481 802.307 690.053 800.889 687.546C790.215 675.572 779.865 663.525 769.808 651.415C773.994 639.634 781.348 633.311 778.318 614.337C779.385 628.542 774.748 638.839 768.423 649.743C764.568 645.087 760.75 640.422 756.971 635.743C759.738 623.185 765.171 616.023 762.156 596.733C763.493 611.336 760.279 622.403 755.791 634.272C749.874 626.928 744.059 619.57 738.321 612.189C741.543 602.618 747.569 597.804 745.161 582.696C746.005 593.944 742.266 602.043 737.212 610.693L737.421 611.028C731.625 603.551 725.912 596.052 720.273 588.543C722.887 582.991 726.841 580.408 726.382 571.069C726.144 578.017 723.308 582.734 719.633 587.687C712.9 578.701 706.277 569.697 699.751 560.676Z" fill="url(#paint5_linear_13_65)"/>
</g>
<g clip-path="url(#clip3_13_65)">
<path d="M68.3691 519.74C57.048 518.044 51.4742 512.663 43.1352 505.775C41.9287 504.719 34.7433 498.1 34.4581 497.567C33.1679 496.918 28.7339 498.332 26.6815 498.779C21.5716 499.886 4.16557 503.933 1.29707 502.459C1.16106 502.058 0.939748 501.64 1.04189 501.085C1.23274 500.092 1.45477 500.158 2.09907 500.067C2.2458 499.973 15.2786 498.144 16.5959 497.902C22.4061 496.803 28.0338 496.13 33.7846 494.495L35.5283 489.404L37.696 483.2C39.3338 479.295 40.4642 475.2 42.2619 471.417C47.8574 459.605 52.185 456.97 63.618 450.529C64.9095 449.99 66.5087 449.281 67.7999 448.918C75.8957 446.843 81.9964 445.427 90.4781 444.928C92.4467 444.809 94.1489 444.729 96.195 444.688C96.9043 444.67 97.7019 444.797 98.5034 444.855C109.522 445.619 119.996 448.705 130.397 452.363C133.414 453.426 136.394 454.631 139.395 455.682L143.75 457.497C147.363 459.128 150.698 461.138 154.489 462.298C157.165 463.119 159.35 462.481 161.465 463.239C160.382 465.085 157.731 465.808 156.119 467.406C154.441 469.072 153.493 470.643 152.08 472.722C145.456 482.5 134.53 494.185 126.129 501.919C119.538 507.994 113.113 512.228 105.912 515.055C102.103 516.549 98.1663 517.735 94.41 518.656C85.4096 520.861 77.6635 521.133 68.3691 519.74Z" stroke="url(#paint6_linear_13_65)" stroke-miterlimit="22.9256"/>
<path d="M160.723 463.619C148.98 467.111 137.219 470.533 125.427 473.867C129.702 478.194 133.897 481.655 140.643 482.941C131.32 481.96 129.405 477.636 124.292 474.188C115.706 476.606 107.101 478.982 98.4781 481.288C104.204 489.454 110.006 496.206 120.544 500.103C105.911 496.04 103.991 488.624 96.7577 481.749C88.8534 483.857 81.9958 485.599 74.0546 487.595C80.5615 491.582 87.0469 505.71 103.052 514.12C84.8729 506.008 82.0785 497.374 72.6138 488.003C64.8369 489.953 57.0447 491.849 49.2293 493.673C56.5587 504.109 63.9933 512.739 77.4774 517.724C58.7192 512.512 56.2338 503.006 46.9805 494.196C32.3558 497.589 17.6534 500.749 2.86656 503.619C0.804139 503.724 -0.0267257 501.241 2.64224 500.159C18.4464 497.412 34.0418 494.406 49.4467 491.169C53.489 479.337 51.6564 469.813 65.8221 456.831C56.1587 467.297 53.3917 478.246 51.5702 490.719C57.4847 489.467 63.3749 488.186 69.243 486.868C74.88 475.31 75.0745 466.323 89.4245 453.084C79.3016 463.693 74.9422 474.362 71.0814 486.449C80.2814 484.373 89.4101 482.222 98.4924 480.005C101.916 470.504 100.187 462.988 111.463 452.649C103.811 460.936 101.707 469.605 100.291 479.523L99.9191 479.656C109.107 477.399 118.242 475.075 127.327 472.697C128.729 466.722 127.237 462.241 133.401 455.21C129.269 460.802 128.559 466.26 128.36 472.423C139.22 469.568 150.004 466.63 160.723 463.619Z" fill="url(#paint7_linear_13_65)"/>
</g>
<g clip-path="url(#clip4_13_65)">
<path d="M778.953 545.943C790.274 544.246 795.848 538.865 804.187 531.977C805.394 530.921 812.579 524.303 812.864 523.77C814.154 523.12 818.588 524.535 820.641 524.982C825.751 526.089 843.157 530.136 846.025 528.661C846.161 528.26 846.383 527.842 846.28 527.288C846.09 526.294 845.867 526.361 845.223 526.27C845.076 526.175 832.044 524.346 830.726 524.105C824.916 523.005 819.288 522.332 813.538 520.697L811.794 515.607L809.626 509.402C807.988 505.498 806.858 501.403 805.06 497.62C799.465 485.808 795.137 483.173 783.704 476.732C782.413 476.193 780.814 475.484 779.522 475.12C771.427 473.046 765.326 471.629 756.844 471.13C754.876 471.012 753.173 470.931 751.127 470.89C750.418 470.873 749.62 470.999 748.819 471.057C737.8 471.821 727.326 474.907 716.925 478.565C713.908 479.629 710.928 480.834 707.928 481.885L703.573 483.7C699.96 485.331 696.624 487.34 692.834 488.501C690.157 489.321 687.972 488.683 685.857 489.442C686.94 491.288 689.591 492.01 691.203 493.609C692.881 495.275 693.829 496.846 695.242 498.925C701.866 508.703 712.793 520.387 721.193 528.122C727.785 534.196 734.209 538.431 741.41 541.258C745.219 542.751 749.156 543.938 752.912 544.859C761.913 547.063 769.659 547.336 778.953 545.943Z" stroke="url(#paint8_linear_13_65)" stroke-miterlimit="22.9256"/>
<path d="M686.599 489.821C698.343 493.313 710.103 496.736 721.895 500.07C717.62 504.397 713.425 507.857 706.679 509.144C716.003 508.163 717.917 503.839 723.031 500.391C731.616 502.809 740.222 505.184 748.844 507.49C743.119 515.657 737.317 522.408 726.778 526.306C741.411 522.243 743.331 514.827 750.565 507.952C758.469 510.06 765.327 511.801 773.268 513.798C766.761 517.785 760.275 531.913 744.27 540.323C762.449 532.21 765.244 523.577 774.708 514.205C782.485 516.156 790.278 518.052 798.093 519.875C790.764 530.311 783.329 538.941 769.845 543.926C788.603 538.715 791.088 529.208 800.342 520.399C814.967 523.791 829.669 526.952 844.456 529.821C846.518 529.926 847.349 527.444 844.68 526.362C828.876 523.614 813.28 520.608 797.876 517.371C793.833 505.54 795.666 496.016 781.5 483.034C791.164 493.5 793.931 504.449 795.752 516.922C789.838 515.67 783.947 514.388 778.079 513.07C772.442 501.513 772.248 492.526 757.898 479.287C768.021 489.896 772.38 500.564 776.241 512.652C767.041 510.576 757.912 508.425 748.83 506.208C745.406 496.707 747.136 489.191 735.859 478.851C743.511 487.139 745.615 495.808 747.032 505.725L747.403 505.858C738.215 503.602 729.08 501.277 719.996 498.899C718.593 492.925 720.085 488.444 713.921 481.413C718.053 487.005 718.763 492.462 718.962 498.626C708.102 495.771 697.318 492.833 686.599 489.821Z" fill="url(#paint9_linear_13_65)"/>
</g>
<g clip-path="url(#clip5_13_65)">
<path d="M763.953 431.943C775.274 430.246 780.848 424.865 789.187 417.977C790.394 416.921 797.579 410.303 797.864 409.77C799.154 409.12 803.588 410.535 805.641 410.982C810.751 412.089 828.157 416.136 831.025 414.661C831.161 414.26 831.383 413.842 831.28 413.288C831.09 412.294 830.867 412.361 830.223 412.27C830.076 412.175 817.044 410.346 815.726 410.105C809.916 409.005 804.288 408.332 798.538 406.697L796.794 401.607L794.626 395.402C792.988 391.498 791.858 387.403 790.06 383.62C784.465 371.808 780.137 369.173 768.704 362.732C767.413 362.193 765.814 361.484 764.522 361.12C756.427 359.046 750.326 357.629 741.844 357.13C739.876 357.012 738.173 356.931 736.127 356.89C735.418 356.873 734.62 356.999 733.819 357.057C722.8 357.821 712.326 360.907 701.925 364.565C698.908 365.629 695.928 366.834 692.928 367.885L688.573 369.7C684.96 371.331 681.624 373.34 677.834 374.501C675.157 375.321 672.972 374.683 670.857 375.442C671.94 377.288 674.591 378.01 676.203 379.609C677.881 381.275 678.829 382.846 680.242 384.925C686.866 394.703 697.793 406.387 706.193 414.122C712.785 420.196 719.209 424.431 726.41 427.258C730.219 428.751 734.156 429.938 737.912 430.859C746.913 433.063 754.659 433.336 763.953 431.943Z" stroke="url(#paint10_linear_13_65)" stroke-miterlimit="22.9256"/>
<path d="M671.599 375.821C683.343 379.313 695.103 382.736 706.895 386.07C702.62 390.397 698.425 393.857 691.679 395.144C701.003 394.163 702.917 389.839 708.031 386.391C716.616 388.809 725.222 391.184 733.844 393.49C728.119 401.657 722.317 408.408 711.778 412.306C726.411 408.243 728.331 400.827 735.565 393.952C743.469 396.06 750.327 397.801 758.268 399.798C751.761 403.785 745.275 417.913 729.27 426.323C747.449 418.21 750.244 409.577 759.708 400.205C767.485 402.156 775.278 404.052 783.093 405.875C775.764 416.311 768.329 424.941 754.845 429.926C773.603 424.715 776.088 415.208 785.342 406.399C799.967 409.791 814.669 412.952 829.456 415.821C831.518 415.926 832.349 413.444 829.68 412.362C813.876 409.614 798.28 406.608 782.876 403.371C778.833 391.54 780.666 382.016 766.5 369.034C776.164 379.5 778.931 390.449 780.752 402.922C774.838 401.67 768.947 400.388 763.079 399.07C757.442 387.513 757.248 378.526 742.898 365.287C753.021 375.896 757.38 386.564 761.241 398.652C752.041 396.576 742.912 394.425 733.83 392.208C730.406 382.707 732.136 375.191 720.859 364.851C728.511 373.139 730.615 381.808 732.032 391.725L732.403 391.858C723.215 389.602 714.08 387.277 704.996 384.899C703.593 378.925 705.085 374.444 698.921 367.413C703.053 373.005 703.763 378.462 703.962 384.626C693.102 381.771 682.318 378.833 671.599 375.821Z" fill="url(#paint11_linear_13_65)"/>
</g>
<g clip-path="url(#clip6_13_65)">
<path d="M83.8677 277.943C72.5465 276.246 66.9727 270.865 58.6337 263.977C57.4273 262.921 50.2419 256.303 49.9566 255.77C48.6665 255.12 44.2324 256.535 42.18 256.982C37.0701 258.089 19.6641 262.136 16.7956 260.661C16.6596 260.26 16.4383 259.842 16.5404 259.288C16.7313 258.294 16.9533 258.361 17.5976 258.27C17.7443 258.175 30.7771 256.346 32.0944 256.105C37.9046 255.005 43.5323 254.332 49.2832 252.697L51.0269 247.607L53.1945 241.402C54.8323 237.498 55.9627 233.403 57.7605 229.62C63.3559 217.808 67.6835 215.173 79.1165 208.732C80.4081 208.193 82.0072 207.484 83.2984 207.12C91.3942 205.046 97.4949 203.629 105.977 203.13C107.945 203.012 109.647 202.931 111.694 202.89C112.403 202.873 113.2 202.999 114.002 203.057C125.021 203.821 135.495 206.907 145.895 210.565C148.913 211.629 151.893 212.834 154.893 213.885L159.248 215.7C162.861 217.331 166.197 219.34 169.987 220.501C172.663 221.321 174.848 220.683 176.964 221.442C175.881 223.288 173.23 224.01 171.618 225.609C169.94 227.275 168.992 228.846 167.579 230.925C160.955 240.703 150.028 252.387 141.627 260.122C135.036 266.196 128.612 270.431 121.41 273.258C117.602 274.751 113.665 275.938 109.909 276.859C100.908 279.063 93.162 279.336 83.8677 277.943Z" stroke="url(#paint12_linear_13_65)" stroke-miterlimit="22.9256"/>
<path d="M176.222 221.821C164.478 225.313 152.717 228.736 140.926 232.07C145.201 236.397 149.396 239.857 156.142 241.144C146.818 240.163 144.904 235.839 139.79 232.391C131.205 234.809 122.599 237.184 113.977 239.49C119.702 247.657 125.504 254.408 136.043 258.306C121.41 254.243 119.489 246.827 112.256 239.952C104.352 242.06 97.4943 243.801 89.5531 245.798C96.06 249.785 102.545 263.913 118.551 272.323C100.371 264.21 97.577 255.577 88.1123 246.205C80.3355 248.156 72.5433 250.052 64.7279 251.875C72.0573 262.311 79.4918 270.941 92.9759 275.926C74.2178 270.715 71.7324 261.208 62.479 252.399C47.8543 255.791 33.1519 258.952 18.3651 261.821C16.3027 261.926 15.4718 259.444 18.1408 258.362C33.9449 255.614 49.5404 252.608 64.9452 249.371C68.9875 237.54 67.155 228.016 81.3206 215.034C71.6572 225.5 68.8902 236.449 67.0688 248.922C72.9833 247.67 78.8735 246.388 84.7416 245.07C90.3786 233.513 90.5731 224.526 104.923 211.287C94.8001 221.896 90.4407 232.564 86.58 244.652C95.7799 242.576 104.909 240.425 113.991 238.208C117.415 228.707 115.685 221.191 126.962 210.851C119.31 219.139 117.206 227.808 115.789 237.725L115.418 237.858C124.606 235.602 133.741 233.277 142.825 230.899C144.228 224.925 142.736 220.444 148.9 213.413C144.768 219.005 144.058 224.462 143.859 230.626C154.718 227.771 165.503 224.833 176.222 221.821Z" fill="url(#paint13_linear_13_65)"/>
</g>
<g clip-path="url(#clip7_13_65)">
<path d="M764.957 232.943C776.278 231.246 781.851 225.865 790.19 218.977C791.397 217.921 798.582 211.303 798.868 210.77C800.158 210.12 804.592 211.535 806.644 211.982C811.754 213.089 829.16 217.136 832.029 215.661C832.165 215.26 832.386 214.842 832.284 214.288C832.093 213.294 831.871 213.361 831.227 213.27C831.08 213.175 818.047 211.346 816.73 211.105C810.92 210.005 805.292 209.332 799.541 207.697L797.797 202.607L795.63 196.402C793.992 192.498 792.862 188.403 791.064 184.62C785.468 172.808 781.141 170.173 769.708 163.732C768.416 163.193 766.817 162.484 765.526 162.12C757.43 160.046 751.329 158.629 742.848 158.13C740.879 158.012 739.177 157.931 737.131 157.89C736.421 157.873 735.624 157.999 734.822 158.057C723.803 158.821 713.329 161.907 702.929 165.565C699.912 166.629 696.932 167.834 693.931 168.885L689.576 170.7C685.963 172.331 682.627 174.34 678.837 175.501C676.161 176.321 673.976 175.683 671.86 176.442C672.943 178.288 675.595 179.01 677.206 180.609C678.884 182.275 679.833 183.846 681.245 185.925C687.869 195.703 698.796 207.387 707.197 215.122C713.788 221.196 720.212 225.431 727.414 228.258C731.223 229.751 735.159 230.938 738.916 231.859C747.916 234.063 755.662 234.336 764.957 232.943Z" stroke="url(#paint14_linear_13_65)" stroke-miterlimit="22.9256"/>
<path d="M672.602 176.821C684.346 180.313 696.107 183.736 707.899 187.07C703.623 191.397 699.428 194.857 692.682 196.144C702.006 195.163 703.921 190.839 709.034 187.391C717.62 189.809 726.225 192.184 734.848 194.49C729.122 202.657 723.32 209.408 712.781 213.306C727.414 209.243 729.335 201.827 736.568 194.952C744.472 197.06 751.33 198.801 759.271 200.798C752.764 204.785 746.279 218.913 730.274 227.323C748.453 219.21 751.247 210.577 760.712 201.205C768.489 203.156 776.281 205.052 784.096 206.875C776.767 217.311 769.332 225.941 755.848 230.926C774.606 225.715 777.092 216.208 786.345 207.399C800.97 210.791 815.672 213.952 830.459 216.821C832.522 216.926 833.352 214.444 830.683 213.362C814.879 210.614 799.284 207.608 783.879 204.371C779.837 192.54 781.669 183.016 767.504 170.034C777.167 180.5 779.934 191.449 781.755 203.922C775.841 202.67 769.951 201.388 764.083 200.07C758.446 188.513 758.251 179.526 743.901 166.287C754.024 176.896 758.384 187.564 762.244 199.652C753.044 197.576 743.916 195.425 734.833 193.208C731.41 183.707 733.139 176.191 721.863 165.851C729.515 174.139 731.618 182.808 733.035 192.725L733.407 192.858C724.219 190.602 715.083 188.277 705.999 185.899C704.596 179.925 706.089 175.444 699.925 168.413C704.057 174.005 704.766 179.462 704.965 185.626C694.106 182.771 683.322 179.833 672.602 176.821Z" fill="url(#paint15_linear_13_65)"/>
</g>
<g clip-path="url(#clip8_13_65)">
<path d="M408.304 62.0358C398.014 57.0201 390.372 58.2963 379.598 59.2481C378.006 59.4346 368.335 60.8177 367.798 61.0949C366.367 60.8995 363.515 57.2216 362.077 55.6907C358.493 51.8837 346.443 38.6875 343.244 38.2773C342.904 38.5308 342.485 38.7497 342.255 39.2643C341.85 40.1912 342.07 40.2624 342.55 40.7021C342.617 40.8632 352.32 49.7541 353.269 50.6992C357.434 54.8971 361.69 58.6402 365.502 63.2455L364.055 68.4283L362.326 74.7688C361.464 78.9141 360.075 82.929 359.413 87.065C357.333 99.9681 359.405 104.592 365.178 116.376C365.937 117.552 366.853 119.043 367.711 120.073C373.207 126.369 377.431 130.993 384.138 136.21C385.693 137.422 387.05 138.453 388.713 139.646C389.287 140.063 390.016 140.41 390.709 140.817C400.222 146.43 410.602 149.82 421.244 152.699C424.333 153.532 427.471 154.227 430.539 155.061L435.156 156.033C439.058 156.736 442.945 156.97 446.725 158.161C449.396 159.001 450.835 160.764 453.008 161.338C453.161 159.203 451.386 157.106 450.963 154.875C450.524 152.552 450.633 150.72 450.647 148.206C450.728 136.396 448.344 120.578 445.803 109.444C443.813 100.705 440.919 93.5757 436.586 87.166C434.294 83.7777 431.722 80.5697 429.148 77.6827C422.98 70.767 416.752 66.1539 408.304 62.0358Z" stroke="url(#paint16_linear_13_65)" stroke-miterlimit="22.9256"/>
<path d="M452.611 160.605C444.913 151.074 437.16 141.59 429.332 132.163C435.307 131.019 440.724 130.545 447.012 133.306C438.773 128.832 434.746 131.311 428.579 131.255C422.874 124.398 417.128 117.565 411.329 110.78C420.674 107.295 429.28 105.018 440.173 107.777C425.813 102.835 420.029 107.858 410.173 109.425C404.854 103.21 400.19 97.8899 394.777 91.7456C402.398 92.1464 415.746 84.1788 433.7 86.3167C414.123 82.7023 406.93 88.233 393.821 90.5935C388.518 84.5803 383.171 78.6036 377.764 72.6728C389.716 68.2258 400.731 65.3263 414.667 68.858C396.257 62.5249 388.823 68.9505 376.207 70.9675C366.078 59.8863 355.753 48.9526 345.194 38.2107C343.554 36.9555 341.463 38.5303 343.049 40.9342C354.516 52.152 365.664 63.4647 376.524 74.8595C373.152 86.8993 366.246 93.7088 370.564 112.432C368.531 98.3329 372.454 87.743 378.02 76.4327C382.184 80.8152 386.311 85.2086 390.4 89.6193C388.498 102.336 383.566 109.852 387.89 128.892C385.56 114.414 388.011 103.153 391.678 91.0057C398.083 97.9285 404.387 104.873 410.615 111.845C408.053 121.614 402.37 126.827 405.804 141.736C404.194 130.572 407.372 122.236 411.823 113.262L411.592 112.941C417.885 120.006 424.096 127.097 430.234 134.203C428.006 139.921 424.237 142.768 425.333 152.054C425.096 145.106 427.603 140.206 430.931 135.014C438.262 143.519 445.484 152.05 452.611 160.605Z" fill="url(#paint17_linear_13_65)"/>
</g>
<g clip-path="url(#clip9_13_65)">
<path d="M205.598 65.4736C195.674 59.7672 187.963 60.5189 177.149 60.733C175.548 60.8104 165.805 61.5302 165.251 61.7701C163.836 61.4774 161.241 57.6134 159.911 55.9879C156.596 51.9452 145.474 37.9573 142.311 37.3296C141.955 37.5593 141.522 37.7492 141.257 38.2469C140.789 39.1439 141.005 39.23 141.453 39.7014C141.509 39.8668 150.583 49.3992 151.465 50.4069C155.333 54.8793 159.324 58.9041 162.813 63.759L161.016 68.8309L158.858 75.0385C157.715 79.1153 156.055 83.0261 155.113 87.1073C152.156 99.8382 153.908 104.592 158.863 116.744C159.54 117.969 160.352 119.518 161.138 120.605C166.191 127.261 170.09 132.163 176.425 137.825C177.894 139.141 179.177 140.262 180.755 141.566C181.299 142.02 182.003 142.417 182.667 142.87C191.774 149.119 201.898 153.21 212.319 156.808C215.344 157.85 218.428 158.758 221.431 159.8L225.971 161.084C229.815 162.052 233.677 162.55 237.368 163.997C239.975 165.017 241.29 166.875 243.419 167.595C243.718 165.476 242.09 163.262 241.821 161.008C241.541 158.66 241.775 156.84 241.96 154.334C242.847 142.556 241.548 126.612 239.774 115.331C238.385 106.476 235.983 99.1662 232.098 92.4757C230.043 88.9389 227.696 85.5628 225.325 82.5068C219.644 75.1862 213.745 70.1588 205.598 65.4736Z" stroke="url(#paint18_linear_13_65)" stroke-miterlimit="22.9256"/>
<path d="M243.074 166.837C236.043 156.803 228.956 146.812 221.79 136.872C227.829 136.139 233.266 136.035 239.351 139.22C231.436 134.194 227.249 136.392 221.1 135.915C215.876 128.685 210.611 121.476 205.289 114.311C214.85 111.471 223.591 109.788 234.27 113.283C220.281 107.373 214.167 111.989 204.228 112.88C199.346 106.316 195.055 100.69 190.075 94.1908C197.65 95.1109 211.511 88.073 229.277 91.4314C209.993 86.4891 202.438 91.5159 189.199 92.9761C184.319 86.6149 179.392 80.2872 174.403 74.0012C186.63 70.3803 197.818 68.2396 211.48 72.7142C193.546 65.1393 185.69 71.0424 172.966 72.1936C163.617 60.4469 154.063 48.8339 144.261 37.3963C142.711 36.0321 140.517 37.4605 141.936 39.967C152.61 51.9414 162.959 63.9886 173.017 76.0982C168.83 87.8797 161.476 94.202 164.506 113.176C163.44 98.9711 168.076 88.6738 174.401 77.7698C178.257 82.4263 182.075 87.0912 185.853 91.7707C183.087 104.328 177.654 111.49 180.668 130.78C179.331 116.177 182.546 105.11 187.033 93.2411C192.95 100.585 198.765 107.943 204.503 115.325C201.281 124.896 195.255 129.709 197.663 144.818C196.819 133.569 200.559 125.47 205.612 116.82L205.404 116.485C211.2 123.963 216.912 131.461 222.551 138.97C219.937 144.522 215.983 147.105 216.443 156.445C216.68 149.496 219.516 144.779 223.191 139.827C229.924 148.812 236.547 157.816 243.074 166.837Z" fill="url(#paint19_linear_13_65)"/>
</g>
<g clip-path="url(#clip10_13_65)">
<path d="M109.598 407.04C99.6738 412.746 91.963 411.994 81.149 411.78C79.5477 411.703 69.8051 410.983 69.2506 410.743C67.836 411.036 65.2414 414.9 63.9111 416.525C60.5957 420.568 49.4743 434.556 46.3107 435.184C45.9549 434.954 45.5218 434.764 45.2574 434.266C44.7894 433.369 45.0045 433.283 45.453 432.812C45.5091 432.646 54.5827 423.114 55.4649 422.106C59.3334 417.634 63.324 413.609 66.8133 408.754L65.0157 403.682L62.8583 397.475C61.7148 393.398 60.0554 389.487 59.1127 385.406C56.1559 372.675 57.9084 367.921 62.8628 355.77C63.5396 354.545 64.3517 352.995 65.1375 351.908C70.191 345.252 74.0899 340.35 80.4247 334.688C81.8936 333.372 83.1769 332.251 84.7546 330.948C85.2992 330.493 86.0029 330.096 86.6667 329.644C95.7742 323.394 105.898 319.303 116.319 315.705C119.344 314.663 122.428 313.755 125.431 312.713L129.971 311.429C133.815 310.462 137.677 309.963 141.368 308.516C143.975 307.496 145.29 305.638 147.419 304.918C147.718 307.037 146.09 309.251 145.821 311.505C145.541 313.853 145.775 315.673 145.96 318.18C146.847 329.957 145.548 345.901 143.774 357.182C142.385 366.037 139.983 373.347 136.098 380.037C134.043 383.574 131.696 386.95 129.325 390.006C123.644 397.327 117.745 402.354 109.598 407.04Z" stroke="url(#paint20_linear_13_65)" stroke-miterlimit="22.9256"/>
<path d="M147.074 305.676C140.043 315.711 132.956 325.701 125.79 335.641C131.829 336.374 137.266 336.478 143.351 333.293C135.436 338.319 131.249 336.121 125.1 336.598C119.876 343.828 114.611 351.037 109.289 358.202C118.85 361.042 127.591 362.726 138.27 359.23C124.281 365.14 118.167 360.524 108.228 359.633C103.346 366.197 99.0551 371.823 94.0745 378.322C101.65 377.402 115.511 384.44 133.277 381.082C113.993 386.024 106.438 380.997 93.1991 379.537C88.3185 385.898 83.3919 392.226 78.4026 398.512C90.6303 402.133 101.818 404.274 115.48 399.799C97.5455 407.374 89.6904 401.471 76.966 400.32C67.6168 412.066 58.0625 423.679 48.2612 435.117C46.7108 436.481 44.5172 435.053 45.9356 432.546C56.6096 420.572 66.9595 408.525 77.0165 396.415C72.8305 384.634 65.4761 378.311 68.5059 359.337C67.4397 373.542 72.0763 383.839 78.4011 394.743C82.2567 390.087 86.0746 385.422 89.8528 380.743C87.0866 368.185 81.6537 361.023 84.6682 341.733C83.331 356.336 86.5457 367.403 91.0329 379.272C96.9503 371.928 102.765 364.57 108.503 357.189C105.281 347.618 99.2549 342.804 101.663 327.696C100.819 338.944 104.559 347.043 109.612 355.693L109.404 356.028C115.2 348.551 120.912 341.052 126.551 333.543C123.937 327.991 119.983 325.408 120.443 316.069C120.68 323.017 123.516 327.734 127.191 332.687C133.924 323.701 140.547 314.697 147.074 305.676Z" fill="url(#paint21_linear_13_65)"/>
</g>
<g clip-path="url(#clip11_13_65)">
<path d="M742.739 251.741C753.959 249.468 761.036 252.622 771.226 256.248C772.72 256.828 781.734 260.594 782.184 260.997C783.619 261.167 787.303 258.323 789.079 257.202C793.504 254.417 808.481 244.668 811.68 245.074C811.945 245.404 812.296 245.721 812.389 246.277C812.549 247.276 812.318 247.29 811.743 247.595C811.638 247.734 800.014 253.905 798.858 254.581C793.773 257.6 788.713 260.154 783.867 263.655L783.967 269.036L784.049 275.607C783.843 279.836 784.179 284.071 783.782 288.241C782.557 301.253 779.39 305.208 770.845 315.167C769.815 316.114 768.554 317.327 767.465 318.11C760.564 322.824 755.315 326.24 747.513 329.606C745.703 330.389 744.131 331.047 742.222 331.784C741.562 332.043 740.769 332.196 739.996 332.416C729.378 335.461 718.48 336.138 707.456 336.253C704.257 336.283 701.044 336.169 697.865 336.206L693.152 335.988C689.2 335.689 685.378 334.94 681.419 335.144C678.624 335.287 676.788 336.633 674.541 336.642C674.928 334.537 677.173 332.953 678.142 330.9C679.15 328.761 679.505 326.96 680.122 324.524C683.008 313.071 689.287 298.358 694.54 288.219C698.66 280.258 703.252 274.084 709.055 268.967C712.124 266.263 715.419 263.803 718.635 261.654C726.341 256.508 733.528 253.606 742.739 251.741Z" stroke="url(#paint22_linear_13_65)" stroke-miterlimit="22.9256"/>
<path d="M675.109 336.032C684.953 328.739 694.838 321.505 704.782 314.344C699.286 311.738 694.161 309.918 687.381 311.013C696.479 308.75 699.755 312.16 705.739 313.654C712.982 308.449 720.259 303.277 727.575 298.165C719.405 292.445 711.646 288.082 700.409 288.018C715.55 286.839 719.888 293.153 729.035 297.144C735.743 292.462 741.594 288.484 748.375 283.895C740.898 282.37 729.977 271.307 712.062 268.87C731.919 270.285 737.494 277.444 749.59 283.019C756.233 278.53 762.909 274.087 769.632 269.703C759.179 262.398 749.243 256.827 734.868 256.747C754.278 255.238 759.861 263.324 771.567 268.443C784.153 260.259 796.892 252.267 809.809 244.52C811.712 243.716 813.34 245.766 811.202 247.694C797.286 255.675 783.656 263.827 770.283 272.131C770.525 284.632 775.5 292.957 766.621 309.997C772.128 296.859 770.989 285.624 768.44 273.278C763.309 276.475 758.211 279.692 753.146 282.935C751.796 295.723 754.683 304.236 745.718 321.58C751.608 308.151 752.061 296.635 751.561 283.956C743.624 289.05 735.779 294.19 728 299.375C728.027 309.474 732.22 315.947 725.153 329.517C729.514 319.114 728.531 310.248 726.475 300.443L726.778 300.191C718.914 305.45 711.122 310.755 703.396 316.093C704.118 322.187 707.051 325.889 703.66 334.603C705.633 327.936 704.436 322.564 702.518 316.703C693.287 323.095 684.155 329.541 675.109 336.032Z" fill="url(#paint23_linear_13_65)"/>
</g>
<g clip-path="url(#clip12_13_65)">
<path d="M698.227 51.4736C708.15 45.7672 715.861 46.5189 726.675 46.733C728.277 46.8104 738.019 47.5302 738.574 47.7701C739.988 47.4774 742.583 43.6134 743.913 41.9879C747.229 37.9452 758.35 23.9573 761.513 23.3296C761.869 23.5593 762.302 23.7492 762.567 24.2469C763.035 25.1439 762.82 25.23 762.371 25.7014C762.315 25.8668 753.241 35.3992 752.359 36.4069C748.491 40.8793 744.5 44.9041 741.011 49.759L742.809 54.8309L744.966 61.0385C746.109 65.1153 747.769 69.0261 748.712 73.1073C751.668 85.8382 749.916 90.5925 744.961 102.744C744.285 103.969 743.473 105.518 742.687 106.605C737.633 113.261 733.734 118.163 727.4 123.825C725.931 125.141 724.647 126.262 723.07 127.566C722.525 128.02 721.821 128.417 721.158 128.87C712.05 135.119 701.926 139.21 691.505 142.808C688.48 143.85 685.397 144.758 682.393 145.8L677.853 147.084C674.009 148.052 670.147 148.55 666.456 149.997C663.849 151.017 662.534 152.875 660.406 153.595C660.106 151.476 661.734 149.262 662.004 147.008C662.283 144.66 662.05 142.84 661.865 140.334C660.977 128.556 662.276 112.612 664.051 101.331C665.439 92.4762 667.841 85.1662 671.726 78.4757C673.782 74.9389 676.129 71.5628 678.499 68.5068C684.18 61.1862 690.08 56.1588 698.227 51.4736Z" stroke="url(#paint24_linear_13_65)" stroke-miterlimit="22.9256"/>
<path d="M660.751 152.837C667.781 142.803 674.868 132.812 682.034 122.872C675.996 122.139 670.558 122.035 664.474 125.22C672.388 120.194 676.575 122.392 682.724 121.915C687.948 114.685 693.213 107.476 698.535 100.311C688.974 97.4711 680.233 95.7875 669.554 99.2832C683.544 93.3727 689.657 97.9892 699.596 98.8803C704.479 92.3161 708.769 86.6902 713.75 80.1908C706.174 81.1109 692.313 74.073 674.547 77.4314C693.831 72.4891 701.386 77.5159 714.625 78.9761C719.506 72.6149 724.432 66.2872 729.422 60.0012C717.194 56.3803 706.006 54.2396 692.344 58.7142C710.279 51.1393 718.134 57.0424 730.858 58.1936C740.207 46.4469 749.762 34.8339 759.563 23.3963C761.113 22.0321 763.307 23.4605 761.889 25.967C751.215 37.9414 740.865 49.9886 730.808 62.0982C734.994 73.8797 742.348 80.202 739.318 99.1762C740.385 84.9711 735.748 74.6738 729.423 63.7698C725.568 68.4263 721.75 73.0912 717.971 77.7707C720.738 90.3282 726.171 97.49 723.156 116.78C724.493 102.177 721.279 91.1101 716.791 79.2411C710.874 86.585 705.059 93.9433 699.321 101.325C702.543 110.896 708.569 115.709 706.161 130.818C707.005 119.569 703.266 111.47 698.212 102.82L698.421 102.485C692.625 109.963 686.912 117.461 681.273 124.97C683.887 130.522 687.841 133.105 687.382 142.445C687.144 135.496 684.308 130.779 680.633 125.827C673.9 134.812 667.277 143.816 660.751 152.837Z" fill="url(#paint25_linear_13_65)"/>
</g>
<g clip-path="url(#clip13_13_65)">
<path d="M182.227 677.04C192.15 682.746 199.861 681.994 210.675 681.78C212.277 681.703 222.019 680.983 222.574 680.743C223.988 681.036 226.583 684.9 227.913 686.525C231.229 690.568 242.35 704.556 245.513 705.184C245.869 704.954 246.302 704.764 246.567 704.266C247.035 703.369 246.82 703.283 246.371 702.812C246.315 702.646 237.241 693.114 236.359 692.106C232.491 687.634 228.5 683.609 225.011 678.754L226.809 673.682L228.966 667.475C230.109 663.398 231.769 659.487 232.712 655.406C235.668 642.675 233.916 637.921 228.961 625.77C228.285 624.545 227.473 622.995 226.687 621.908C221.633 615.252 217.734 610.35 211.4 604.688C209.931 603.372 208.647 602.251 207.07 600.948C206.525 600.493 205.821 600.096 205.158 599.644C196.05 593.394 185.926 589.303 175.505 585.705C172.48 584.663 169.397 583.755 166.393 582.713L161.853 581.429C158.009 580.462 154.147 579.963 150.456 578.516C147.849 577.496 146.534 575.638 144.406 574.918C144.106 577.037 145.734 579.251 146.004 581.505C146.283 583.853 146.05 585.673 145.865 588.18C144.977 599.957 146.276 615.901 148.051 627.182C149.439 636.037 151.841 643.347 155.726 650.037C157.782 653.574 160.129 656.95 162.499 660.006C168.18 667.327 174.08 672.354 182.227 677.04Z" stroke="url(#paint26_linear_13_65)" stroke-miterlimit="22.9256"/>
<path d="M144.751 575.676C151.781 585.711 158.868 595.701 166.034 605.641C159.996 606.374 154.558 606.478 148.474 603.293C156.388 608.319 160.575 606.121 166.724 606.598C171.948 613.828 177.213 621.037 182.535 628.202C172.974 631.042 164.233 632.726 153.554 629.23C167.544 635.14 173.657 630.524 183.596 629.633C188.479 636.197 192.769 641.823 197.75 648.322C190.174 647.402 176.313 654.44 158.547 651.082C177.831 656.024 185.386 650.997 198.625 649.537C203.506 655.898 208.432 662.226 213.422 668.512C201.194 672.133 190.006 674.274 176.344 669.799C194.279 677.374 202.134 671.471 214.858 670.32C224.207 682.066 233.762 693.679 243.563 705.117C245.113 706.481 247.307 705.053 245.889 702.546C235.215 690.572 224.865 678.525 214.808 666.415C218.994 654.634 226.348 648.311 223.318 629.337C224.385 643.542 219.748 653.839 213.423 664.743C209.568 660.087 205.75 655.422 201.971 650.743C204.738 638.185 210.171 631.023 207.156 611.733C208.493 626.336 205.279 637.403 200.791 649.272C194.874 641.928 189.059 634.57 183.321 627.189C186.543 617.618 192.569 612.804 190.161 597.696C191.005 608.944 187.266 617.043 182.212 625.693L182.421 626.028C176.625 618.551 170.912 611.052 165.273 603.543C167.887 597.991 171.841 595.408 171.382 586.069C171.144 593.017 168.308 597.734 164.633 602.687C157.9 593.701 151.277 584.697 144.751 575.676Z" fill="url(#paint27_linear_13_65)"/>
</g>
<g clip-path="url(#clip14_13_65)">
<path d="M669.639 701.299C661.222 709.059 653.536 710.031 642.943 712.213C641.364 712.492 631.703 713.944 631.109 713.833C629.795 714.431 628.119 718.773 627.181 720.653C624.841 725.329 617.089 741.43 614.142 742.741C613.744 742.596 613.28 742.507 612.912 742.08C612.257 741.308 612.448 741.177 612.781 740.618C612.799 740.444 619.54 729.141 620.178 727.963C622.962 722.746 625.963 717.939 628.293 712.432L625.418 707.884L621.941 702.307C619.925 698.584 617.441 695.137 615.619 691.365C609.921 679.603 610.578 674.579 612.723 661.633C613.112 660.289 613.561 658.598 614.087 657.364C617.544 649.755 620.262 644.113 625.188 637.19C626.33 635.582 627.333 634.205 628.584 632.584C629.014 632.021 629.613 631.478 630.16 630.89C637.66 622.781 646.628 616.552 655.996 610.739C658.716 609.054 661.522 607.487 664.221 605.807L668.365 603.55C671.9 601.756 675.556 600.416 678.835 598.189C681.152 596.618 682.024 594.515 683.94 593.342C684.701 595.342 683.602 597.861 683.838 600.119C684.085 602.471 684.715 604.194 685.45 606.598C688.92 617.887 691.179 633.724 691.943 645.118C692.547 654.061 691.821 661.721 689.512 669.105C688.289 673.009 686.747 676.82 685.111 680.325C681.189 688.721 676.548 694.928 669.639 701.299Z" stroke="url(#paint28_linear_13_65)" stroke-miterlimit="22.9256"/>
<path d="M683.771 594.158C679.134 605.498 674.432 616.808 669.641 628.087C675.692 627.467 681.018 626.365 686.248 621.914C679.641 628.566 675.071 627.348 669.18 629.173C665.684 637.379 662.143 645.574 658.538 653.739C668.49 654.394 677.387 654.103 687.028 648.332C674.692 657.19 667.71 654.04 657.819 655.369C654.509 662.85 651.569 669.285 648.149 676.725C655.334 674.153 670.408 677.951 686.991 670.747C669.278 679.832 660.798 676.6 647.564 678.104C644.211 685.387 640.806 692.647 637.33 699.881C650.056 700.708 661.44 700.322 673.774 692.937C657.959 704.29 648.993 700.27 636.329 701.961C629.809 715.485 623.059 728.923 616.03 742.245C614.819 743.918 612.364 743.01 613.193 740.252C620.955 726.214 628.384 712.176 635.515 698.142C628.827 687.578 620.256 683.039 619.015 663.864C621.117 677.953 627.916 686.97 636.495 696.206C639.226 690.812 641.917 685.418 644.567 680.019C639.093 668.384 632.21 662.601 630.885 643.122C632.81 657.659 638.392 667.741 645.393 678.324C649.54 669.854 653.584 661.391 657.547 652.924C652.288 644.303 645.347 640.941 644.355 625.674C646.019 636.83 651.457 643.902 658.298 651.22L658.169 651.593C662.168 643.019 666.08 634.443 669.919 625.873C666.142 621.036 661.715 619.392 660.098 610.182C661.866 616.906 665.675 620.879 670.354 624.896C674.934 614.644 679.401 604.398 683.771 594.158Z" fill="url(#paint29_linear_13_65)"/>
</g>
<g clip-path="url(#clip15_13_65)">
<path d="M137.576 81.5423C135.677 70.2535 130.196 64.7772 123.16 56.5632C122.082 55.3759 115.336 48.3104 114.798 48.0347C114.125 46.7565 115.46 42.2977 115.87 40.2376C116.885 35.1087 120.619 17.6329 119.093 14.7913C118.69 14.6625 118.268 14.4487 117.716 14.5608C116.726 14.7695 116.796 14.9903 116.717 15.6361C116.625 15.7845 115.03 28.848 114.812 30.1694C113.817 35.9984 113.245 41.6373 111.714 47.4166L106.655 49.2514L100.491 51.53C96.6165 53.2376 92.5423 54.4413 88.7919 56.3067C77.0828 62.1133 74.5253 66.4875 68.2909 78.0342C67.7752 79.3353 67.0947 80.9469 66.7547 82.2444C64.8261 90.3761 63.5189 96.5013 63.1722 104.991C63.0895 106.961 63.0392 108.664 63.0352 110.711C63.0301 111.42 63.1712 112.216 63.2433 113.016C64.205 124.019 67.4787 134.436 71.3227 144.769C72.4403 147.767 73.6986 150.725 74.8029 153.706L76.6959 158.028C78.3916 161.611 80.4605 164.91 81.6888 168.679C82.5573 171.34 81.9586 173.536 82.7549 175.638C84.5813 174.522 85.2563 171.858 86.8256 170.218C88.4611 168.51 90.015 167.534 92.068 166.084C101.726 159.285 113.212 148.151 120.795 139.613C126.75 132.914 130.868 126.414 133.566 119.163C134.99 115.328 136.106 111.371 136.959 107.598C139.002 98.5599 139.135 90.8102 137.576 81.5423Z" stroke="url(#paint30_linear_13_65)" stroke-miterlimit="22.9256"/>
<path d="M83.1213 174.889C86.402 163.084 89.6128 151.264 92.7345 139.414C97.1375 143.611 100.673 147.744 102.08 154.466C100.932 145.161 96.5743 143.324 93.0351 138.273C95.2985 129.646 97.5192 120.999 99.6701 112.337C107.938 117.915 114.792 123.594 118.879 134.061C114.554 119.504 107.104 117.717 100.1 110.608C102.067 102.667 103.684 95.7796 105.538 87.8039C109.642 94.2381 123.884 100.469 132.579 116.321C124.142 98.2899 115.46 95.6509 105.92 86.356C107.73 78.5454 109.486 70.7204 111.169 62.8735C121.735 70.0144 130.497 77.2929 135.723 90.6853C130.176 72.0237 120.627 69.7093 111.652 60.6156C114.782 45.9324 117.678 31.1757 120.281 16.3397C120.349 14.2757 117.853 13.4895 116.818 16.1775C114.355 32.0284 111.629 47.6753 108.669 63.1357C96.9122 67.3898 87.3572 65.7285 74.6314 80.1248C84.9224 70.2751 95.8198 67.3121 108.258 65.267C107.113 71.2031 105.937 77.1153 104.724 83.0061C93.2702 88.8497 84.2879 89.2054 71.3084 103.791C81.7345 93.479 92.3227 88.9288 104.339 84.8518C102.428 94.0875 100.441 103.253 98.3878 112.374C88.9501 115.968 81.4045 114.373 71.2686 125.834C79.4174 118.034 88.0475 115.775 97.9378 114.181L98.0641 113.807C95.9731 123.034 93.8129 132.209 91.5982 141.335C85.6501 142.844 81.1429 141.433 74.2236 147.722C79.7403 143.49 85.1845 142.683 91.3434 142.373C88.6839 153.282 85.9396 164.117 83.1213 174.889Z" fill="url(#paint31_linear_13_65)"/>
</g>
<g clip-path="url(#clip16_13_65)">
<path d="M576.106 76.5423C578.006 65.2535 583.486 59.7772 590.522 51.5632C591.6 50.3759 598.346 43.3104 598.884 43.0347C599.557 41.7565 598.222 37.2977 597.812 35.2376C596.797 30.1087 593.063 12.6329 594.589 9.79129C594.992 9.6625 595.414 9.44872 595.966 9.5608C596.956 9.76946 596.886 9.99026 596.965 10.6361C597.057 10.7845 598.652 23.848 598.87 25.1694C599.865 30.9984 600.437 36.6373 601.968 42.4166L607.027 44.2514L613.191 46.53C617.066 48.2376 621.14 49.4413 624.89 51.3067C636.599 57.1133 639.157 61.4875 645.391 73.0342C645.907 74.3353 646.587 75.9469 646.927 77.2444C648.856 85.3761 650.163 91.5013 650.51 99.9906C650.593 101.961 650.643 103.664 650.647 105.711C650.652 106.42 650.511 107.216 650.439 108.016C649.477 119.019 646.203 129.436 642.359 139.769C641.242 142.767 639.984 145.725 638.879 148.706L636.986 153.028C635.29 156.611 633.222 159.91 631.993 163.679C631.125 166.34 631.724 168.536 630.927 170.638C629.101 169.522 628.426 166.858 626.857 165.218C625.221 163.51 623.667 162.534 621.614 161.084C611.956 154.285 600.47 143.151 592.887 134.613C586.932 127.914 582.814 121.414 580.116 114.163C578.692 110.328 577.576 106.371 576.723 102.598C574.68 93.5599 574.547 85.8102 576.106 76.5423Z" stroke="url(#paint32_linear_13_65)" stroke-miterlimit="22.9256"/>
<path d="M630.561 169.889C627.28 158.084 624.069 146.264 620.948 134.414C616.545 138.611 613.009 142.744 611.602 149.466C612.75 140.161 617.108 138.324 620.647 133.273C618.384 124.646 616.163 115.999 614.012 107.337C605.744 112.915 598.89 118.594 594.803 129.061C599.129 114.504 606.578 112.717 613.582 105.608C611.615 97.6674 609.998 90.7796 608.144 82.8039C604.041 89.2381 589.798 95.4689 581.103 111.321C589.54 93.2899 598.222 90.6509 607.762 81.356C605.952 73.5454 604.196 65.7204 602.513 57.8735C591.947 65.0144 583.185 72.2929 577.959 85.6853C583.506 67.0237 593.056 64.7093 602.03 55.6156C598.9 40.9324 596.004 26.1757 593.401 11.3397C593.333 9.27571 595.83 8.48954 596.864 11.1775C599.327 27.0284 602.053 42.6753 605.013 58.1357C616.77 62.3898 626.325 60.7285 639.051 75.1248C628.76 65.2751 617.862 62.3121 605.424 60.267C606.569 66.2031 607.745 72.1153 608.958 78.0061C620.412 83.8497 629.394 84.2054 642.374 98.7907C631.948 88.479 621.359 83.9288 609.343 79.8518C611.254 89.0875 613.241 98.2533 615.294 107.374C624.732 110.968 632.278 109.373 642.413 120.834C634.265 113.034 625.635 110.775 615.744 109.181L615.618 108.807C617.709 118.034 619.869 127.209 622.084 136.335C628.032 137.844 632.539 136.433 639.459 142.722C633.942 138.49 628.498 137.683 622.339 137.373C624.998 148.282 627.743 159.117 630.561 169.889Z" fill="url(#paint33_linear_13_65)"/>
</g>
<g clip-path="url(#clip17_13_65)">
<path d="M541.576 91.5423C539.677 80.2535 534.196 74.7772 527.16 66.5632C526.082 65.3759 519.336 58.3104 518.798 58.0347C518.125 56.7565 519.46 52.2977 519.87 50.2376C520.885 45.1087 524.619 27.6329 523.093 24.7913C522.69 24.6625 522.268 24.4487 521.716 24.5608C520.726 24.7695 520.796 24.9903 520.717 25.6361C520.625 25.7845 519.03 38.848 518.812 40.1694C517.817 45.9984 517.245 51.6373 515.714 57.4166L510.655 59.2514L504.491 61.53C500.616 63.2376 496.542 64.4413 492.792 66.3067C481.083 72.1133 478.525 76.4875 472.291 88.0342C471.775 89.3353 471.095 90.9469 470.755 92.2444C468.826 100.376 467.519 106.501 467.172 114.991C467.09 116.961 467.039 118.664 467.035 120.711C467.03 121.42 467.171 122.216 467.243 123.016C468.205 134.019 471.479 144.436 475.323 154.769C476.44 157.767 477.699 160.725 478.803 163.706L480.696 168.028C482.392 171.611 484.46 174.91 485.689 178.679C486.557 181.34 485.959 183.536 486.755 185.638C488.581 184.522 489.256 181.858 490.826 180.218C492.461 178.51 494.015 177.534 496.068 176.084C505.726 169.285 517.212 158.151 524.795 149.613C530.75 142.914 534.868 136.414 537.566 129.163C538.99 125.328 540.106 121.371 540.959 117.598C543.002 108.56 543.135 100.81 541.576 91.5423Z" stroke="url(#paint34_linear_13_65)" stroke-miterlimit="22.9256"/>
<path d="M487.121 184.889C490.402 173.084 493.613 161.264 496.734 149.414C501.137 153.611 504.673 157.744 506.08 164.466C504.932 155.161 500.574 153.324 497.035 148.273C499.299 139.646 501.519 130.999 503.67 122.337C511.938 127.915 518.792 133.594 522.879 144.061C518.554 129.504 511.104 127.717 504.1 120.608C506.067 112.667 507.684 105.78 509.538 97.8039C513.642 104.238 527.884 110.469 536.579 126.321C528.142 108.29 519.46 105.651 509.92 96.356C511.73 88.5454 513.486 80.7204 515.169 72.8735C525.735 80.0144 534.497 87.2929 539.723 100.685C534.176 82.0237 524.627 79.7093 515.652 70.6156C518.782 55.9324 521.678 41.1757 524.281 26.3397C524.349 24.2757 521.853 23.4895 520.818 26.1775C518.355 42.0284 515.629 57.6753 512.669 73.1357C500.912 77.3898 491.357 75.7285 478.631 90.1248C488.922 80.2751 499.82 77.3121 512.258 75.267C511.113 81.2031 509.937 87.1153 508.724 93.0061C497.27 98.8497 488.288 99.2054 475.308 113.791C485.734 103.479 496.323 98.9288 508.339 94.8518C506.428 104.087 504.441 113.253 502.388 122.374C492.95 125.968 485.404 124.373 475.269 135.834C483.417 128.034 492.048 125.775 501.938 124.181L502.064 123.807C499.973 133.034 497.813 142.209 495.598 151.335C489.65 152.844 485.143 151.433 478.224 157.722C483.74 153.49 489.184 152.683 495.343 152.373C492.684 163.282 489.94 174.117 487.121 184.889Z" fill="url(#paint35_linear_13_65)"/>
</g>
<g clip-path="url(#clip18_13_65)">
<path d="M342.576 67.5423C340.677 56.2535 335.196 50.7772 328.16 42.5632C327.082 41.3759 320.336 34.3104 319.798 34.0347C319.125 32.7565 320.46 28.2977 320.87 26.2376C321.885 21.1087 325.619 3.63287 324.093 0.791292C323.69 0.662498 323.268 0.448725 322.716 0.560795C321.726 0.769457 321.796 0.990262 321.717 1.63608C321.625 1.78449 320.03 14.848 319.812 16.1694C318.817 21.9984 318.245 27.6373 316.714 33.4166L311.655 35.2514L305.491 37.53C301.616 39.2376 297.542 40.4413 293.792 42.3067C282.083 48.1133 279.525 52.4875 273.291 64.0342C272.775 65.3353 272.095 66.9469 271.755 68.2444C269.826 76.3761 268.519 82.5013 268.172 90.9906C268.089 92.961 268.039 94.6643 268.035 96.7108C268.03 97.4204 268.171 98.2156 268.243 99.0159C269.205 110.019 272.479 120.436 276.323 130.769C277.44 133.767 278.699 136.725 279.803 139.706L281.696 144.028C283.392 147.611 285.46 150.91 286.689 154.679C287.557 157.34 286.959 159.536 287.755 161.638C289.581 160.522 290.256 157.858 291.826 156.218C293.461 154.51 295.015 153.534 297.068 152.084C306.726 145.285 318.212 134.151 325.795 125.613C331.75 118.914 335.868 112.414 338.566 105.163C339.99 101.328 341.106 97.3707 341.959 93.5985C344.002 84.5599 344.135 76.8102 342.576 67.5423Z" stroke="url(#paint36_linear_13_65)" stroke-miterlimit="22.9256"/>
<path d="M288.121 160.889C291.402 149.084 294.613 137.264 297.734 125.414C302.137 129.611 305.673 133.744 307.08 140.466C305.932 131.161 301.574 129.324 298.035 124.273C300.299 115.646 302.519 106.999 304.67 98.3366C312.938 103.915 319.792 109.594 323.879 120.061C319.554 105.504 312.104 103.717 305.1 96.6083C307.067 88.6674 308.684 81.7796 310.538 73.8039C314.642 80.2381 328.884 86.4689 337.579 102.321C329.142 84.2899 320.46 81.6509 310.92 72.356C312.73 64.5454 314.486 56.7204 316.169 48.8735C326.735 56.0144 335.497 63.2929 340.723 76.6853C335.176 58.0237 325.627 55.7093 316.652 46.6156C319.782 31.9324 322.678 17.1757 325.281 2.33969C325.349 0.275712 322.853 -0.510464 321.818 2.1775C319.355 18.0284 316.629 33.6753 313.669 49.1357C301.912 53.3898 292.357 51.7285 279.631 66.1248C289.922 56.2751 300.82 53.3121 313.258 51.267C312.113 57.2031 310.937 63.1153 309.724 69.0061C298.27 74.8497 289.288 75.2054 276.308 89.7907C286.734 79.479 297.323 74.9288 309.339 70.8518C307.428 80.0875 305.441 89.2533 303.388 98.3739C293.95 101.968 286.404 100.373 276.269 111.834C284.417 104.034 293.048 101.775 302.938 100.181L303.064 99.8067C300.973 109.034 298.813 118.209 296.598 127.335C290.65 128.844 286.143 127.433 279.224 133.722C284.74 129.49 290.184 128.683 296.343 128.373C293.684 139.282 290.94 150.117 288.121 160.889Z" fill="url(#paint37_linear_13_65)"/>
</g>
<g clip-path="url(#clip19_13_65)">
<path d="M321.598 706.04C311.674 711.746 303.963 710.994 293.149 710.78C291.548 710.703 281.805 709.983 281.251 709.743C279.836 710.036 277.241 713.9 275.911 715.525C272.596 719.568 261.474 733.556 258.311 734.184C257.955 733.954 257.522 733.764 257.257 733.266C256.789 732.369 257.005 732.283 257.453 731.812C257.509 731.646 266.583 722.114 267.465 721.106C271.333 716.634 275.324 712.609 278.813 707.754L277.016 702.682L274.858 696.475C273.715 692.398 272.055 688.487 271.113 684.406C268.156 671.675 269.908 666.921 274.863 654.77C275.54 653.545 276.352 651.995 277.138 650.908C282.191 644.252 286.09 639.35 292.425 633.688C293.894 632.372 295.177 631.251 296.755 629.948C297.299 629.493 298.003 629.096 298.667 628.644C307.774 622.394 317.898 618.303 328.319 614.705C331.344 613.663 334.428 612.755 337.431 611.713L341.971 610.429C345.815 609.462 349.677 608.963 353.368 607.516C355.975 606.496 357.29 604.638 359.419 603.918C359.718 606.037 358.09 608.251 357.821 610.505C357.541 612.853 357.775 614.673 357.96 617.18C358.847 628.957 357.548 644.901 355.774 656.182C354.385 665.037 351.983 672.347 348.098 679.037C346.043 682.574 343.696 685.95 341.325 689.006C335.644 696.327 329.745 701.354 321.598 706.04Z" stroke="url(#paint38_linear_13_65)" stroke-miterlimit="22.9256"/>
<path d="M359.074 604.676C352.043 614.711 344.956 624.701 337.79 634.641C343.829 635.374 349.266 635.478 355.351 632.293C347.436 637.319 343.249 635.121 337.1 635.598C331.876 642.828 326.611 650.037 321.289 657.202C330.85 660.042 339.591 661.726 350.27 658.23C336.281 664.14 330.167 659.524 320.228 658.633C315.346 665.197 311.055 670.823 306.075 677.322C313.65 676.402 327.511 683.44 345.277 680.082C325.993 685.024 318.438 679.997 305.199 678.537C300.319 684.898 295.392 691.226 290.403 697.512C302.63 701.133 313.818 703.274 327.48 698.799C309.546 706.374 301.69 700.471 288.966 699.32C279.617 711.066 270.063 722.679 260.261 734.117C258.711 735.481 256.517 734.053 257.936 731.546C268.61 719.572 278.959 707.525 289.017 695.415C284.83 683.634 277.476 677.311 280.506 658.337C279.44 672.542 284.076 682.839 290.401 693.743C294.257 689.087 298.075 684.422 301.853 679.743C299.087 667.185 293.654 660.023 296.668 640.733C295.331 655.336 298.546 666.403 303.033 678.272C308.95 670.928 314.765 663.57 320.503 656.189C317.281 646.618 311.255 641.804 313.663 626.696C312.819 637.944 316.559 646.043 321.612 654.693L321.404 655.028C327.2 647.551 332.912 640.052 338.551 632.543C335.937 626.991 331.983 624.408 332.443 615.069C332.68 622.017 335.516 626.734 339.191 631.687C345.924 622.701 352.547 613.697 359.074 604.676Z" fill="url(#paint39_linear_13_65)"/>
</g>
<g clip-path="url(#clip20_13_65)">
<path d="M409.628 700.604C417.423 708.988 425.011 710.548 435.405 713.539C436.958 713.939 446.478 716.13 447.079 716.064C448.344 716.762 449.681 721.22 450.471 723.166C452.444 728.008 458.936 744.658 461.772 746.192C462.18 746.078 462.65 746.024 463.05 745.627C463.762 744.908 463.582 744.763 463.293 744.18C463.288 744.005 457.436 732.217 456.891 730.994C454.517 725.578 451.894 720.554 449.995 714.885L453.211 710.57L457.107 705.277C459.404 701.721 462.145 698.475 464.251 694.854C470.838 683.566 470.569 678.506 469.426 665.433C469.141 664.063 468.824 662.343 468.394 661.072C465.533 653.22 463.257 647.385 458.878 640.104C457.863 638.413 456.969 636.962 455.847 635.251C455.461 634.655 454.906 634.069 454.405 633.44C447.551 624.779 439.089 617.878 430.196 611.362C427.614 609.473 424.936 607.694 422.375 605.811L418.417 603.243C415.03 601.182 411.488 599.565 408.39 597.092C406.201 595.347 405.493 593.184 403.673 591.866C402.761 593.803 403.662 596.399 403.253 598.632C402.826 600.957 402.065 602.627 401.148 604.967C396.82 615.956 393.349 631.572 391.711 642.874C390.421 651.744 390.555 659.437 392.29 666.977C393.209 670.963 394.453 674.882 395.815 678.502C399.079 687.174 403.229 693.72 409.628 700.604Z" stroke="url(#paint40_linear_13_65)" stroke-miterlimit="22.9256"/>
<path d="M403.778 592.693C407.53 604.357 411.348 615.995 415.257 627.609C409.271 626.525 404.046 625.017 399.174 620.177C405.25 627.317 409.9 626.455 415.633 628.727C418.487 637.178 421.387 645.621 424.354 654.039C414.381 653.926 405.533 652.952 396.364 646.457C407.982 656.237 415.186 653.633 424.945 655.719C427.67 663.433 430.106 670.075 432.944 677.756C425.978 674.639 410.657 677.266 394.677 668.808C411.639 679.228 420.342 676.658 433.421 679.175C436.204 686.695 439.041 694.196 441.95 701.675C429.198 701.521 417.877 700.26 406.148 691.948C421.043 704.485 430.292 701.166 442.788 703.827C448.249 717.811 453.945 731.729 459.929 745.552C461.007 747.314 463.524 746.597 462.91 743.783C456.251 729.19 449.923 714.622 443.894 700.081C451.374 690.063 460.268 686.196 462.981 667.174C459.802 681.06 452.329 689.527 443.065 698.075C440.758 692.487 438.489 686.903 436.262 681.316C442.615 670.136 449.922 664.9 452.742 645.58C449.705 659.926 443.363 669.549 435.569 679.562C432.086 670.798 428.705 662.05 425.405 653.303C431.311 645.111 438.49 642.293 440.654 627.148C438.137 638.143 432.171 644.776 424.787 651.546L424.887 651.928C421.56 643.071 418.318 634.22 415.15 625.38C419.288 620.848 423.828 619.549 426.149 610.491C423.869 617.059 419.766 620.727 414.792 624.373C411.014 613.799 407.348 603.24 403.778 592.693Z" fill="url(#paint41_linear_13_65)"/>
</g>
<defs>
<linearGradient id="paint0_linear_13_65" x1="145.941" y1="594.244" x2="15.0748" y2="638.109" gradientUnits="userSpaceOnUse">
<stop offset="0.322917" stop-color="#00BD8D"/>
<stop offset="1" stop-color="#00392D"/>
</linearGradient>
<linearGradient id="paint1_linear_13_65" x1="145.614" y1="595.056" x2="15.4983" y2="638.67" gradientUnits="userSpaceOnUse">
<stop offset="0.322917" stop-color="#00BD8D"/>
<stop offset="1" stop-color="#00392D"/>
</linearGradient>
<linearGradient id="paint2_linear_13_65" x1="603.272" y1="630.698" x2="486.194" y2="703.793" gradientUnits="userSpaceOnUse">
<stop offset="0.322917" stop-color="#00BD8D"/>
<stop offset="1" stop-color="#00392D"/>
</linearGradient>
<linearGradient id="paint3_linear_13_65" x1="603.142" y1="631.564" x2="486.737" y2="704.24" gradientUnits="userSpaceOnUse">
<stop offset="0.322917" stop-color="#00BD8D"/>
<stop offset="1" stop-color="#00392D"/>
</linearGradient>
<linearGradient id="paint4_linear_13_65" x1="684.883" y1="603.244" x2="815.749" y2="647.109" gradientUnits="userSpaceOnUse">
<stop offset="0.322917" stop-color="#00BD8D"/>
<stop offset="1" stop-color="#00392D"/>
</linearGradient>
<linearGradient id="paint5_linear_13_65" x1="685.21" y1="604.056" x2="815.325" y2="647.67" gradientUnits="userSpaceOnUse">
<stop offset="0.322917" stop-color="#00BD8D"/>
<stop offset="1" stop-color="#00392D"/>
</linearGradient>
<linearGradient id="paint6_linear_13_65" x1="145.917" y1="506.208" x2="16.1304" y2="459.244" gradientUnits="userSpaceOnUse">
<stop offset="0.322917" stop-color="#00BD8D"/>
<stop offset="1" stop-color="#00392D"/>
</linearGradient>
<linearGradient id="paint7_linear_13_65" x1="145.156" y1="506.641" x2="16.114" y2="459.946" gradientUnits="userSpaceOnUse">
<stop offset="0.322917" stop-color="#00BD8D"/>
<stop offset="1" stop-color="#00392D"/>
</linearGradient>
<linearGradient id="paint8_linear_13_65" x1="701.406" y1="532.411" x2="831.192" y2="485.447" gradientUnits="userSpaceOnUse">
<stop offset="0.322917" stop-color="#00BD8D"/>
<stop offset="1" stop-color="#00392D"/>
</linearGradient>
<linearGradient id="paint9_linear_13_65" x1="702.167" y1="532.843" x2="831.208" y2="486.149" gradientUnits="userSpaceOnUse">
<stop offset="0.322917" stop-color="#00BD8D"/>
<stop offset="1" stop-color="#00392D"/>
</linearGradient>
<linearGradient id="paint10_linear_13_65" x1="686.406" y1="418.411" x2="816.192" y2="371.447" gradientUnits="userSpaceOnUse">
<stop offset="0.322917" stop-color="#00BD8D"/>
<stop offset="1" stop-color="#00392D"/>
</linearGradient>
<linearGradient id="paint11_linear_13_65" x1="687.167" y1="418.843" x2="816.208" y2="372.149" gradientUnits="userSpaceOnUse">
<stop offset="0.322917" stop-color="#00BD8D"/>
<stop offset="1" stop-color="#00392D"/>
</linearGradient>
<linearGradient id="paint12_linear_13_65" x1="161.415" y1="264.411" x2="31.6289" y2="217.447" gradientUnits="userSpaceOnUse">
<stop offset="0.322917" stop-color="#00BD8D"/>
<stop offset="1" stop-color="#00392D"/>
</linearGradient>
<linearGradient id="paint13_linear_13_65" x1="160.654" y1="264.843" x2="31.6126" y2="218.149" gradientUnits="userSpaceOnUse">
<stop offset="0.322917" stop-color="#00BD8D"/>
<stop offset="1" stop-color="#00392D"/>
</linearGradient>
<linearGradient id="paint14_linear_13_65" x1="687.409" y1="219.411" x2="817.195" y2="172.447" gradientUnits="userSpaceOnUse">
<stop offset="0.322917" stop-color="#00BD8D"/>
<stop offset="1" stop-color="#00392D"/>
</linearGradient>
<linearGradient id="paint15_linear_13_65" x1="688.17" y1="219.843" x2="817.212" y2="173.149" gradientUnits="userSpaceOnUse">
<stop offset="0.322917" stop-color="#00BD8D"/>
<stop offset="1" stop-color="#00392D"/>
</linearGradient>
<linearGradient id="paint16_linear_13_65" x1="464.539" y1="117.121" x2="330.984" y2="82.291" gradientUnits="userSpaceOnUse">
<stop offset="0.322917" stop-color="#00BD8D"/>
<stop offset="1" stop-color="#00392D"/>
</linearGradient>
<linearGradient id="paint17_linear_13_65" x1="464.157" y1="116.333" x2="331.368" y2="81.7032" gradientUnits="userSpaceOnUse">
<stop offset="0.322917" stop-color="#00BD8D"/>
<stop offset="1" stop-color="#00392D"/>
</linearGradient>
<linearGradient id="paint18_linear_13_65" x1="257.941" y1="124.269" x2="127.075" y2="80.4039" gradientUnits="userSpaceOnUse">
<stop offset="0.322917" stop-color="#00BD8D"/>
<stop offset="1" stop-color="#00392D"/>
</linearGradient>
<linearGradient id="paint19_linear_13_65" x1="257.614" y1="123.457" x2="127.499" y2="79.8436" gradientUnits="userSpaceOnUse">
<stop offset="0.322917" stop-color="#00BD8D"/>
<stop offset="1" stop-color="#00392D"/>
</linearGradient>
<linearGradient id="paint20_linear_13_65" x1="161.941" y1="348.244" x2="31.0753" y2="392.109" gradientUnits="userSpaceOnUse">
<stop offset="0.322917" stop-color="#00BD8D"/>
<stop offset="1" stop-color="#00392D"/>
</linearGradient>
<linearGradient id="paint21_linear_13_65" x1="161.614" y1="349.056" x2="31.4988" y2="392.67" gradientUnits="userSpaceOnUse">
<stop offset="0.322917" stop-color="#00BD8D"/>
<stop offset="1" stop-color="#00392D"/>
</linearGradient>
<linearGradient id="paint22_linear_13_65" x1="674.478" y1="290.947" x2="812.5" y2="290.756" gradientUnits="userSpaceOnUse">
<stop offset="0.322917" stop-color="#00BD8D"/>
<stop offset="1" stop-color="#00392D"/>
</linearGradient>
<linearGradient id="paint23_linear_13_65" x1="675.045" y1="290.28" x2="812.275" y2="290.09" gradientUnits="userSpaceOnUse">
<stop offset="0.322917" stop-color="#00BD8D"/>
<stop offset="1" stop-color="#00392D"/>
</linearGradient>
<linearGradient id="paint24_linear_13_65" x1="645.883" y1="110.269" x2="776.749" y2="66.4039" gradientUnits="userSpaceOnUse">
<stop offset="0.322917" stop-color="#00BD8D"/>
<stop offset="1" stop-color="#00392D"/>
</linearGradient>
<linearGradient id="paint25_linear_13_65" x1="646.21" y1="109.457" x2="776.325" y2="65.8436" gradientUnits="userSpaceOnUse">
<stop offset="0.322917" stop-color="#00BD8D"/>
<stop offset="1" stop-color="#00392D"/>
</linearGradient>
<linearGradient id="paint26_linear_13_65" x1="129.883" y1="618.244" x2="260.749" y2="662.109" gradientUnits="userSpaceOnUse">
<stop offset="0.322917" stop-color="#00BD8D"/>
<stop offset="1" stop-color="#00392D"/>
</linearGradient>
<linearGradient id="paint27_linear_13_65" x1="130.21" y1="619.056" x2="260.325" y2="662.67" gradientUnits="userSpaceOnUse">
<stop offset="0.322917" stop-color="#00BD8D"/>
<stop offset="1" stop-color="#00392D"/>
</linearGradient>
<linearGradient id="paint28_linear_13_65" x1="707.684" y1="632.384" x2="589.759" y2="704.103" gradientUnits="userSpaceOnUse">
<stop offset="0.322917" stop-color="#00BD8D"/>
<stop offset="1" stop-color="#00392D"/>
</linearGradient>
<linearGradient id="paint29_linear_13_65" x1="707.545" y1="633.248" x2="590.295" y2="704.555" gradientUnits="userSpaceOnUse">
<stop offset="0.322917" stop-color="#00BD8D"/>
<stop offset="1" stop-color="#00392D"/>
</linearGradient>
<linearGradient id="paint30_linear_13_65" x1="125.438" y1="159.32" x2="76.1521" y2="30.3979" gradientUnits="userSpaceOnUse">
<stop offset="0.322917" stop-color="#00BD8D"/>
<stop offset="1" stop-color="#00392D"/>
</linearGradient>
<linearGradient id="paint31_linear_13_65" x1="125.857" y1="158.552" x2="76.8539" y2="30.3689" gradientUnits="userSpaceOnUse">
<stop offset="0.322917" stop-color="#00BD8D"/>
<stop offset="1" stop-color="#00392D"/>
</linearGradient>
<linearGradient id="paint32_linear_13_65" x1="588.244" y1="154.32" x2="637.53" y2="25.3979" gradientUnits="userSpaceOnUse">
<stop offset="0.322917" stop-color="#00BD8D"/>
<stop offset="1" stop-color="#00392D"/>
</linearGradient>
<linearGradient id="paint33_linear_13_65" x1="587.825" y1="153.552" x2="636.828" y2="25.3689" gradientUnits="userSpaceOnUse">
<stop offset="0.322917" stop-color="#00BD8D"/>
<stop offset="1" stop-color="#00392D"/>
</linearGradient>
<linearGradient id="paint34_linear_13_65" x1="529.438" y1="169.32" x2="480.152" y2="40.3979" gradientUnits="userSpaceOnUse">
<stop offset="0.322917" stop-color="#00BD8D"/>
<stop offset="1" stop-color="#00392D"/>
</linearGradient>
<linearGradient id="paint35_linear_13_65" x1="529.857" y1="168.552" x2="480.854" y2="40.3689" gradientUnits="userSpaceOnUse">
<stop offset="0.322917" stop-color="#00BD8D"/>
<stop offset="1" stop-color="#00392D"/>
</linearGradient>
<linearGradient id="paint36_linear_13_65" x1="330.438" y1="145.32" x2="281.152" y2="16.3979" gradientUnits="userSpaceOnUse">
<stop offset="0.322917" stop-color="#00BD8D"/>
<stop offset="1" stop-color="#00392D"/>
</linearGradient>
<linearGradient id="paint37_linear_13_65" x1="330.857" y1="144.552" x2="281.854" y2="16.3689" gradientUnits="userSpaceOnUse">
<stop offset="0.322917" stop-color="#00BD8D"/>
<stop offset="1" stop-color="#00392D"/>
</linearGradient>
<linearGradient id="paint38_linear_13_65" x1="373.941" y1="647.244" x2="243.075" y2="691.109" gradientUnits="userSpaceOnUse">
<stop offset="0.322917" stop-color="#00BD8D"/>
<stop offset="1" stop-color="#00392D"/>
</linearGradient>
<linearGradient id="paint39_linear_13_65" x1="373.614" y1="648.056" x2="243.499" y2="691.67" gradientUnits="userSpaceOnUse">
<stop offset="0.322917" stop-color="#00BD8D"/>
<stop offset="1" stop-color="#00392D"/>
</linearGradient>
<linearGradient id="paint40_linear_13_65" x1="376.996" y1="628.967" x2="489.056" y2="709.543" gradientUnits="userSpaceOnUse">
<stop offset="0.322917" stop-color="#00BD8D"/>
<stop offset="1" stop-color="#00392D"/>
</linearGradient>
<linearGradient id="paint41_linear_13_65" x1="377.069" y1="629.839" x2="488.486" y2="709.954" gradientUnits="userSpaceOnUse">
<stop offset="0.322917" stop-color="#00BD8D"/>
<stop offset="1" stop-color="#00392D"/>
</linearGradient>
<clipPath id="clip0_13_65">
<rect width="93" height="139.5" fill="white" transform="matrix(-0.317812 -0.948154 -0.948154 0.317812 161.824 637.178)"/>
</clipPath>
<clipPath id="clip1_13_65">
<rect width="93" height="139.5" fill="white" transform="matrix(-0.529592 -0.848252 -0.848252 0.529592 628.704 668.761)"/>
</clipPath>
<clipPath id="clip2_13_65">
<rect width="93" height="139.5" fill="white" transform="translate(669 646.178) rotate(-71.4693)"/>
</clipPath>
<clipPath id="clip3_13_65">
<rect width="93" height="139.5" fill="white" transform="matrix(0.340263 -0.94033 -0.94033 -0.340263 131.678 549.715)"/>
</clipPath>
<clipPath id="clip4_13_65">
<rect width="93" height="139.5" fill="white" transform="translate(715.645 575.917) rotate(-109.893)"/>
</clipPath>
<clipPath id="clip5_13_65">
<rect width="93" height="139.5" fill="white" transform="translate(700.645 461.917) rotate(-109.893)"/>
</clipPath>
<clipPath id="clip6_13_65">
<rect width="93" height="139.5" fill="white" transform="matrix(0.340263 -0.94033 -0.94033 -0.340263 147.176 307.917)"/>
</clipPath>
<clipPath id="clip7_13_65">
<rect width="93" height="139.5" fill="white" transform="translate(701.648 262.917) rotate(-109.893)"/>
</clipPath>
<clipPath id="clip8_13_65">
<rect width="93" height="139.5" fill="white" transform="translate(477.454 73.2031) rotate(104.617)"/>
</clipPath>
<clipPath id="clip9_13_65">
<rect width="93" height="139.5" fill="white" transform="translate(273.824 81.335) rotate(108.531)"/>
</clipPath>
<clipPath id="clip10_13_65">
<rect width="93" height="139.5" fill="white" transform="matrix(-0.317812 -0.948154 -0.948154 0.317812 177.824 391.178)"/>
</clipPath>
<clipPath id="clip11_13_65">
<rect width="93" height="139.5" fill="white" transform="matrix(0.00138374 0.999999 0.999999 -0.00138374 673 245.193)"/>
</clipPath>
<clipPath id="clip12_13_65">
<rect width="93" height="139.5" fill="white" transform="matrix(0.317812 0.948154 0.948154 -0.317812 630 67.335)"/>
</clipPath>
<clipPath id="clip13_13_65">
<rect width="93" height="139.5" fill="white" transform="translate(114 661.178) rotate(-71.4693)"/>
</clipPath>
<clipPath id="clip14_13_65">
<rect width="93" height="139.5" fill="white" transform="matrix(-0.519617 -0.854399 -0.854399 0.519617 732.668 670.743)"/>
</clipPath>
<clipPath id="clip15_13_65">
<rect width="93" height="139.5" fill="white" transform="translate(168.682 144.303) rotate(159.079)"/>
</clipPath>
<clipPath id="clip16_13_65">
<rect width="93" height="139.5" fill="white" transform="matrix(0.934071 0.357086 0.357086 -0.934071 545 139.303)"/>
</clipPath>
<clipPath id="clip17_13_65">
<rect width="93" height="139.5" fill="white" transform="translate(572.682 154.303) rotate(159.079)"/>
</clipPath>
<clipPath id="clip18_13_65">
<rect width="93" height="139.5" fill="white" transform="translate(373.682 130.303) rotate(159.079)"/>
</clipPath>
<clipPath id="clip19_13_65">
<rect width="93" height="139.5" fill="white" transform="matrix(-0.317812 -0.948154 -0.948154 0.317812 389.824 690.178)"/>
</clipPath>
<clipPath id="clip20_13_65">
<rect width="93" height="139.5" fill="white" transform="translate(349.135 665.29) rotate(-54.2819)"/>
</clipPath>
</defs>
</svg>
